<?xml version="1.0" encoding="UTF-8" standalone="no"?>
<!DOCTYPE svg PUBLIC "-//W3C//DTD SVG 1.1//EN" "http://www.w3.org/Graphics/SVG/1.1/DTD/svg11.dtd">
<svg width="100%" height="100%" viewBox="0 0 2480 2480" version="1.1" xmlns="http://www.w3.org/2000/svg" xmlns:xlink="http://www.w3.org/1999/xlink" xml:space="preserve" xmlns:serif="http://www.serif.com/" style="fill-rule:evenodd;clip-rule:evenodd;stroke-linejoin:round;stroke-miterlimit:2;">
    <g id="cabeza">
        <g transform="matrix(1.76687,0,0,1.76687,441.404,-712.946)">
            <path d="M458.997,684.951L462.502,625.724L391.524,609.951C391.524,609.951 385.609,678.957 377.723,698.673C374.448,706.86 449.282,744.569 449.282,744.569L462.502,714.446L458.997,684.951Z" style="fill:rgb(255,160,139);fill-rule:nonzero;"/>
        </g>
        <g transform="matrix(1.76687,0,0,1.76687,441.404,-712.946)">
            <path d="M390.927,616.44C390.628,619.568 390.218,623.69 389.714,628.41C399.502,639.335 424.371,665.974 436.871,669.099C446.953,671.619 455.405,667.7 460.205,664.541L462.502,625.724L395.073,610.739L390.927,616.44Z" style="fill:rgb(199,121,104);fill-rule:nonzero;"/>
        </g>
        <g transform="matrix(1.76687,0,0,1.76687,441.404,-712.946)">
            <path d="M490.093,590.527C494.09,590.532 498.222,592.904 499.454,596.707C500.377,599.557 499.574,602.768 497.883,605.241C496.192,607.714 493.706,609.538 491.102,611.018C487.966,612.799 484.08,614.151 480.83,612.588C477.672,611.069 476.237,607.178 476.54,603.687C477.189,596.206 482.271,590.518 490.093,590.527Z" style="fill:rgb(199,121,104);fill-rule:nonzero;"/>
        </g>
        <g transform="matrix(1.76687,0,0,1.76687,441.404,-712.946)">
            <path d="M497.964,556.989C498.822,539.785 491.057,520.525 476.065,511.139C464.388,503.827 450.236,500.559 436.549,500.544C408.834,500.514 383.456,515.849 380.055,545.1C377.218,569.501 384.381,593.698 390.91,616.937C392.271,621.78 393.986,626.62 396.423,631.035C399.197,636.06 403.263,639.464 407.658,643.071C416.481,650.312 425.683,657.751 436.731,660.615C440.946,661.708 445.433,662.09 449.646,660.991C454.343,659.767 458.37,656.813 462.27,653.923C469.858,648.299 477.733,642.335 481.813,633.816C483.581,630.126 484.55,626.113 485.433,622.118C486.379,617.837 487.24,613.537 488.016,609.222C488.55,606.245 490.414,600.944 490.301,597.407C492.132,589.183 493.901,580.945 495.594,572.692C496.659,567.501 497.7,562.281 497.964,556.989Z" style="fill:rgb(255,160,139);fill-rule:nonzero;"/>
        </g>
        <g transform="matrix(1.76687,0,0,1.76687,441.404,-712.946)">
            <path d="M452.344,617.256C451.961,617.222 451.633,616.934 451.563,616.537C451.479,616.062 451.797,615.608 452.273,615.525C454.842,615.073 459.139,613.879 459.043,610.959C459.016,610.132 458.729,609.313 458.424,608.443L458.326,608.164C454.74,597.854 454.511,586.369 457.714,577.445C457.876,576.991 458.379,576.749 458.832,576.918C459.286,577.082 459.522,577.582 459.359,578.036C456.287,586.596 456.518,597.644 459.978,607.59L460.074,607.864C460.408,608.819 460.755,609.807 460.791,610.902C460.895,614.089 458.054,616.283 452.575,617.247C452.498,617.261 452.419,617.263 452.344,617.256Z" style="fill:rgb(199,121,104);fill-rule:nonzero;"/>
        </g>
        <g transform="matrix(1.76687,0,0,1.76687,441.404,-712.946)">
            <path d="M443.035,616.964C443.017,616.962 442.998,616.96 442.979,616.959C442.087,616.862 441.234,616.356 440.641,615.572C440.005,614.733 439.735,613.688 439.901,612.705C440.065,611.72 440.661,610.825 441.537,610.249C442.356,609.709 443.324,609.526 444.203,609.738C444.671,609.854 444.958,610.328 444.843,610.796C444.728,611.265 444.257,611.542 443.785,611.437C443.383,611.335 442.913,611.437 442.499,611.709C442.035,612.014 441.708,612.494 441.625,612.994C441.54,613.498 441.693,614.066 442.034,614.517C442.339,614.918 442.752,615.175 443.168,615.22C443.528,615.27 444.017,615.167 444.46,615.073L448.367,614.255C448.841,614.154 449.303,614.459 449.402,614.932C449.501,615.404 449.198,615.867 448.725,615.966L444.819,616.784C444.285,616.896 443.681,617.023 443.035,616.964Z" style="fill:rgb(199,121,104);fill-rule:nonzero;"/>
        </g>
        <g transform="matrix(1.76687,0,0,1.76687,441.404,-712.946)">
            <path d="M435.848,575.04C435.381,574.998 434.92,574.829 434.518,574.527C425.235,567.578 414.725,572.657 414.619,572.709C413.32,573.353 411.747,572.822 411.104,571.526C410.461,570.228 410.99,568.654 412.288,568.011C412.835,567.738 425.823,561.462 437.662,570.329C438.821,571.197 439.057,572.841 438.188,574C437.622,574.757 436.725,575.12 435.848,575.04Z" style="fill:rgb(78,57,51);fill-rule:nonzero;"/>
        </g>
        <g transform="matrix(1.76687,0,0,1.76687,441.404,-712.946)">
            <path d="M488.171,579.821C487.704,579.778 487.243,579.61 486.84,579.309C477.558,572.359 467.047,577.438 466.942,577.49C465.643,578.134 464.07,577.604 463.427,576.307C462.784,575.009 463.313,573.436 464.611,572.792C465.158,572.52 478.147,566.244 489.984,575.11C491.144,575.979 491.379,577.622 490.511,578.781C489.945,579.538 489.048,579.901 488.171,579.821Z" style="fill:rgb(78,57,51);fill-rule:nonzero;"/>
        </g>
        <g transform="matrix(1.76687,0,0,1.76687,441.404,-712.946)">
            <path d="M444.383,631.479C435.532,630.671 427.898,628.212 427.352,628.033C427.122,627.958 426.997,627.711 427.072,627.482C427.146,627.253 427.392,627.122 427.623,627.202C427.854,627.278 450.823,634.672 463.415,628.113C463.628,628.001 463.892,628.084 464.004,628.299C464.116,628.514 464.033,628.777 463.818,628.889C458.293,631.767 450.998,632.084 444.383,631.479Z" style="fill:rgb(107,70,64);fill-rule:nonzero;"/>
        </g>
        <g transform="matrix(1.76687,0,0,1.76687,441.404,-712.946)">
            <path d="M423.525,627.309C423.353,627.293 423.199,627.175 423.146,627C422.783,625.801 423.372,624.414 424.487,623.842C424.701,623.731 424.965,623.815 425.075,624.031C425.186,624.245 425.101,624.509 424.886,624.619C424.147,624.999 423.743,625.953 423.982,626.747C424.053,626.978 423.922,627.222 423.691,627.291C423.636,627.309 423.579,627.313 423.525,627.309Z" style="fill:rgb(199,121,104);fill-rule:nonzero;"/>
        </g>
        <g transform="matrix(1.76687,0,0,1.76687,441.404,-712.946)">
            <path d="M468.738,587.242C469.002,584.349 471.563,582.217 474.456,582.481C477.35,582.746 479.481,585.306 479.216,588.199C478.952,591.093 476.392,593.224 473.499,592.96C470.605,592.695 468.474,590.135 468.738,587.242Z" style="fill:rgb(51,51,51);fill-rule:nonzero;"/>
        </g>
        <g transform="matrix(1.76687,0,0,1.76687,441.404,-712.946)">
            <path d="M484.057,588.273C483.922,588.261 483.788,588.212 483.671,588.123C483.616,588.082 478.15,583.959 474.666,583.641C471.208,583.324 465.841,586.432 465.787,586.463C465.429,586.674 464.968,586.553 464.759,586.194C464.549,585.835 464.67,585.375 465.028,585.166C465.264,585.027 470.865,581.783 474.803,582.143C478.716,582.5 484.343,586.746 484.581,586.927C484.911,587.177 484.976,587.649 484.725,587.98C484.562,588.193 484.306,588.296 484.057,588.273Z" style="fill:rgb(51,51,51);fill-rule:nonzero;"/>
        </g>
        <g transform="matrix(1.76687,0,0,1.76687,441.404,-712.946)">
            <path d="M429.289,583.637C429.553,580.744 427.422,578.184 424.528,577.919C421.635,577.655 419.075,579.786 418.811,582.68C418.546,585.573 420.677,588.133 423.571,588.397C426.464,588.662 429.024,586.531 429.289,583.637Z" style="fill:rgb(51,51,51);fill-rule:nonzero;"/>
        </g>
        <g transform="matrix(1.76687,0,0,1.76687,441.404,-712.946)">
            <path d="M414.037,581.875C414.172,581.888 414.313,581.864 414.443,581.797C414.504,581.767 420.627,578.703 424.111,579.021C427.569,579.337 432.285,583.366 432.332,583.406C432.646,583.678 433.121,583.643 433.392,583.328C433.664,583.013 433.628,582.538 433.313,582.268C433.106,582.089 428.187,577.883 424.249,577.523C420.335,577.166 414.032,580.321 413.765,580.456C413.395,580.642 413.246,581.095 413.434,581.466C413.555,581.705 413.787,581.853 414.037,581.875Z" style="fill:rgb(51,51,51);fill-rule:nonzero;"/>
        </g>
        <g transform="matrix(1.76687,0,0,1.76687,441.404,-712.946)">
            <path d="M443.132,637.531C442.097,637.437 440.976,637.295 439.765,637.096C439.526,637.057 439.365,636.832 439.404,636.594C439.444,636.354 439.672,636.202 439.907,636.233C448.33,637.621 452.363,636.079 452.402,636.062C452.625,635.974 452.88,636.082 452.97,636.307C453.059,636.53 452.95,636.785 452.727,636.874C452.58,636.933 449.521,638.115 443.132,637.531Z" style="fill:rgb(107,70,64);fill-rule:nonzero;"/>
        </g>
        <g transform="matrix(1.76687,0,0,1.76687,441.404,-712.946)">
            <path d="M378.691,573.197C379.573,577.027 380.585,580.923 382.782,584.183C384.979,587.442 388.606,589.995 392.535,589.887C397.418,581.55 399.281,571.856 402.007,562.588C404.471,554.212 407.692,546.06 411.618,538.261C411.96,537.582 412.318,536.835 412.153,536.092C411.948,535.169 411.026,534.615 410.183,534.187C404.243,531.17 397.87,529.007 391.321,527.786C386.829,526.948 381.315,526.956 378.732,530.724C375.992,534.72 377.696,543.004 377.106,547.932C376.06,556.679 376.711,564.596 378.691,573.197Z" style="fill:rgb(78,57,51);fill-rule:nonzero;"/>
        </g>
        <g transform="matrix(1.76687,0,0,1.76687,441.404,-712.946)">
            <path d="M379.513,580.423C375.581,579.703 371.087,581.287 369.187,584.804C367.762,587.439 367.97,590.743 369.185,593.481C370.399,596.219 372.514,598.464 374.807,600.391C377.568,602.711 381.145,604.745 384.624,603.797C388.005,602.875 390.121,599.31 390.456,595.82C391.174,588.346 387.208,581.832 379.513,580.423Z" style="fill:rgb(255,160,139);fill-rule:nonzero;"/>
        </g>
        <g transform="matrix(1.76687,0,0,1.76687,441.404,-712.946)">
            <path d="M383.473,599.126C383.378,599.118 383.287,599.079 383.212,599.009C382.254,598.104 381.858,596.647 382.227,595.382C382.598,594.116 383.717,593.102 385.012,592.856C385.153,592.831 385.306,592.803 385.337,592.772C385.342,592.766 385.364,592.726 385.366,592.568C385.382,591.546 384.854,590.572 384.281,589.673C382.91,587.519 381.544,586.12 379.985,585.272C378.08,584.237 375.836,584.181 374.273,585.13C373.661,585.504 373.01,586.179 373.023,586.956C373.026,587.197 372.834,587.396 372.593,587.399C372.355,587.401 372.153,587.212 372.149,586.97C372.133,585.996 372.757,585.03 373.818,584.384C375.643,583.274 378.228,583.322 380.403,584.505C382.098,585.425 383.564,586.919 385.019,589.204C385.633,590.169 386.259,591.326 386.241,592.582C386.237,592.795 386.208,593.105 385.996,593.347C385.77,593.607 385.456,593.664 385.226,593.706C384.194,593.901 383.347,594.669 383.066,595.627C382.787,596.585 383.087,597.688 383.812,598.373C383.987,598.539 383.996,598.816 383.83,598.991C383.734,599.093 383.602,599.138 383.473,599.126Z" style="fill:rgb(199,121,104);fill-rule:nonzero;"/>
        </g>
        <g transform="matrix(1.76687,0,0,1.76687,441.404,-712.946)">
            <path d="M379.874,518.765C380.576,515.964 381.527,513.132 383.417,510.949C384.865,509.278 386.777,508.088 388.658,506.925C394.291,503.441 399.923,499.957 405.556,496.473C411.606,492.73 418.438,488.833 425.411,490.245C430.392,491.252 434.636,494.886 439.693,495.39C444.022,495.82 448.184,493.894 452.366,492.694C466.859,488.535 483.596,493.772 493.133,505.451C495.912,508.854 498.17,512.787 501.688,515.419C509.198,521.041 520.283,519.257 528.101,524.442C533.389,527.951 536.417,534.716 535.174,540.939C533.931,547.162 528.303,552.337 521.969,552.728C519.518,552.879 516.959,552.39 514.663,553.262C511.247,554.56 509.521,558.592 509.74,562.24C509.959,565.888 511.69,569.25 513.385,572.487C506.774,576.377 497.958,576.151 491.555,571.928C485.156,567.707 481.646,560.372 476.513,554.681C471.379,548.989 462.422,544.938 456.229,549.454C453.384,551.529 451.783,555.011 448.855,556.968C443.032,560.86 435.212,557.1 429.708,552.769C424.204,548.437 418.156,543.166 411.226,544.182C404.118,545.225 397.732,552.808 391.116,550.011C387.033,548.285 383.222,541.979 380.652,538.515C376.689,533.174 378.151,525.626 379.874,518.765Z" style="fill:rgb(78,57,51);fill-rule:nonzero;"/>
        </g>
    </g>
    <g id="mano-der" serif:id="mano der">
        <g transform="matrix(1.76687,0,0,1.76687,441.404,-712.946)">
            <path d="M621.217,952.024C621.217,952.024 650.791,953.996 660.649,957.939C670.507,961.883 688.251,975.684 688.251,975.684L646.067,990.855L599.529,985.542L621.217,952.024Z" style="fill:rgb(255,160,139);fill-rule:nonzero;"/>
        </g>
        <g transform="matrix(1.76687,0,0,1.76687,441.404,-712.946)">
            <path d="M672.39,964.427C672.39,964.427 682.336,979.627 682.336,981.599C682.336,983.57 676.422,983.57 658.677,969.769L672.39,964.427Z" style="fill:rgb(255,160,139);fill-rule:nonzero;"/>
        </g>
    </g>
    <g id="pie-izq" serif:id="pie izq">
        <g transform="matrix(1.76687,0,0,1.76687,441.404,-712.946)">
            <path d="M294.797,1686.18C293.145,1689.48 286.536,1709.31 286.536,1719.22C286.536,1729.13 296.449,1735.74 298.101,1744C299.753,1752.26 299.753,1775.39 322.883,1780.35C346.014,1785.31 388.97,1783.66 393.927,1773.74C398.883,1763.83 374.101,1724.18 374.101,1724.18C374.101,1724.18 355.927,1696.09 355.927,1682.87C355.927,1669.66 347.666,1672.96 347.666,1672.96L294.797,1686.18Z" style="fill:rgb(171,87,84);fill-rule:nonzero;"/>
        </g>
        <g transform="matrix(1.76687,0,0,1.76687,441.404,-712.946)">
            <path d="M362.535,1768.79C375.135,1767.64 386.936,1764.11 392.992,1762.06C394.56,1767.06 395.146,1771.3 393.927,1773.74C388.97,1783.66 346.014,1785.31 322.883,1780.35C306.56,1776.85 301.76,1764.31 299.766,1754.32C316.379,1769.07 346.16,1770.27 362.535,1768.79Z" style="fill:rgb(246,235,227);fill-rule:nonzero;"/>
        </g>
        <g transform="matrix(1.76687,0,0,1.76687,441.404,-712.946)">
            <path d="M357.054,1758.94C354.095,1758.94 350.915,1758.73 347.521,1758.24C333.461,1756.23 324.818,1751.22 319.098,1747.9C315.667,1745.91 313.188,1744.46 311.645,1744.98C306.996,1746.53 303.818,1749.66 303.788,1749.69C303.384,1750.09 302.73,1750.1 302.327,1749.69C301.923,1749.29 301.923,1748.63 302.327,1748.23C302.468,1748.09 305.864,1744.73 310.991,1743.02C313.426,1742.22 316.093,1743.77 320.135,1746.11C325.718,1749.35 334.151,1754.25 347.812,1756.2C370.271,1759.41 383.264,1749.88 383.394,1749.79C383.848,1749.45 384.495,1749.54 384.84,1749.99C385.181,1750.45 385.088,1751.1 384.632,1751.44C384.16,1751.79 374.405,1758.94 357.054,1758.94Z" style="fill:rgb(114,53,53);fill-rule:nonzero;"/>
        </g>
        <g transform="matrix(1.76687,0,0,1.76687,441.404,-712.946)">
            <path d="M321.47,1686.54L335.425,1688.84L347.021,1684.49L321.47,1686.54ZM319.386,1697.06L338.121,1698.45C343.956,1696.55 349.609,1694.94 353.404,1693.9L335.635,1690.97L319.386,1697.06ZM338.385,1700.54C331.335,1702.83 324.128,1705.5 319.866,1707.97C323.607,1707.69 329.763,1707.31 336.498,1707.21C341.113,1705.11 346.395,1703.12 352.252,1701.57L338.385,1700.54ZM336.906,1709.29C331.242,1711.9 326.64,1714.66 323.291,1716.91C334.977,1712.99 349.547,1711.18 357.761,1710.42C351.734,1709.42 344.04,1709.2 336.906,1709.29ZM316.275,1721.91C315.944,1721.91 315.619,1721.74 315.421,1721.45C315.131,1721.03 315.199,1720.45 315.583,1720.1C315.684,1720.02 321.64,1714.73 331.969,1709.41C323.323,1709.69 316.525,1710.32 316.374,1710.34C315.916,1710.36 315.526,1710.14 315.341,1709.75C315.155,1709.36 315.236,1708.89 315.544,1708.58C318.246,1705.88 325.395,1702.84 333.078,1700.15L314.546,1698.78C314.062,1698.74 313.668,1698.37 313.6,1697.89C313.531,1697.41 313.805,1696.95 314.259,1696.78L331.549,1690.29L312.802,1687.2C312.286,1687.11 311.917,1686.66 311.937,1686.14C311.959,1685.61 312.367,1685.19 312.887,1685.15L354.191,1681.84C354.734,1681.79 355.17,1682.15 355.283,1682.65C355.394,1683.15 355.12,1683.66 354.637,1683.84L339.511,1689.51L358.479,1692.64C358.961,1692.72 359.322,1693.13 359.345,1693.62C359.365,1694.11 359.04,1694.54 358.568,1694.67C358.415,1694.7 351.738,1696.42 343.718,1698.86L359.308,1700.02C359.825,1700.05 360.234,1700.47 360.263,1700.99C360.293,1701.51 359.932,1701.97 359.421,1702.06C352.914,1703.28 347,1705.12 341.791,1707.19C350.388,1707.28 359.151,1707.97 364.55,1709.99C365.008,1710.17 365.283,1710.63 365.208,1711.12C365.133,1711.6 364.73,1711.97 364.241,1711.99C363.929,1712.01 332.873,1713.73 316.737,1721.8C316.59,1721.87 316.432,1721.91 316.275,1721.91Z" style="fill:rgb(246,235,227);fill-rule:nonzero;"/>
        </g>
    </g>
    <g id="pie-der" serif:id="pie der" transform="matrix(1,0,0,1,-47.8419,52.497)">
        <g transform="matrix(1.76687,0,0,1.76687,441.404,-712.946)">
            <path d="M443.393,1653.5C443.393,1653.5 437.287,1699.29 438.813,1703.87C440.34,1708.45 447.972,1714.56 466.288,1714.56C484.605,1714.56 509.027,1716.09 516.659,1717.61C524.291,1719.14 541.081,1729.82 577.714,1726.77C614.347,1723.72 617.4,1713.03 617.4,1713.03C617.4,1713.03 621.979,1699.29 612.821,1693.19C603.663,1687.08 560.924,1680.98 554.818,1677.93C548.713,1674.87 510.553,1635.19 510.553,1635.19L443.393,1653.5Z" style="fill:rgb(171,87,84);fill-rule:nonzero;"/>
        </g>
        <g transform="matrix(1.76687,0,0,1.76687,441.404,-712.946)">
            <path d="M466.288,1715.32C447.972,1715.32 440.34,1709.22 438.813,1704.64C438.356,1703.26 438.587,1698.18 439.131,1691.74C447.254,1695.8 464.064,1700.06 480.026,1700.06C501.395,1700.06 544.134,1713.8 571.608,1715.32C593.646,1716.55 611.745,1705.99 618.049,1701.77C619.427,1707.66 617.4,1713.8 617.4,1713.8C617.4,1713.8 614.347,1724.48 577.714,1727.53C541.081,1730.59 524.291,1719.9 516.659,1718.38C509.027,1716.85 484.605,1715.32 466.288,1715.32Z" style="fill:rgb(246,235,227);fill-rule:nonzero;"/>
        </g>
        <g transform="matrix(1.76687,0,0,1.76687,441.404,-712.946)">
            <path d="M516.396,1645.67L505.363,1655.6L512.844,1653.17C513.771,1651.13 514.935,1648.66 516.396,1645.67ZM514.386,1654.84C513.117,1657.65 512.145,1659.97 511.7,1661.31C513.218,1660.81 515.982,1659.77 519.258,1658.48L522.991,1652.04L514.386,1654.84ZM520.681,1660.15L516.317,1667.68L526.088,1662.46L528.286,1657.08C526.07,1657.99 523.338,1659.1 520.681,1660.15ZM527.721,1663.94L524.446,1671.96L530.14,1670.82L534.452,1660.35L527.721,1663.94ZM531.629,1672.63L528.237,1680.87L541.52,1670.65L531.629,1672.63ZM525.816,1685.06C525.594,1685.06 525.374,1684.99 525.188,1684.85C524.817,1684.57 524.682,1684.07 524.862,1683.64L529.196,1673.11L522.965,1674.36C522.591,1674.43 522.208,1674.3 521.966,1674C521.724,1673.71 521.664,1673.31 521.807,1672.96L524.868,1665.46L514.091,1671.21C513.684,1671.42 513.184,1671.34 512.862,1671.01C512.542,1670.68 512.479,1670.17 512.711,1669.77L517.598,1661.35C514.117,1662.68 511.238,1663.7 510.552,1663.7C510.195,1663.7 509.755,1663.45 509.566,1663.14C509.335,1662.77 508.938,1662.13 511.717,1655.71L501.376,1659.06C500.916,1659.21 500.405,1659.02 500.163,1658.6C499.919,1658.18 500.004,1657.64 500.365,1657.31L519.018,1640.52C519.388,1640.19 519.94,1640.17 520.336,1640.47C520.731,1640.77 520.857,1641.31 520.635,1641.75C518.869,1645.29 517.08,1648.99 515.554,1652.29L524.92,1649.24C525.326,1649.11 525.771,1649.24 526.042,1649.58C526.313,1649.91 526.347,1650.37 526.133,1650.74L522.36,1657.25C524.773,1656.29 527.325,1655.25 529.781,1654.24C530.164,1654.08 530.608,1654.17 530.903,1654.46C531.199,1654.75 531.288,1655.19 531.131,1655.58L528.941,1660.94L536.016,1657.17C536.401,1656.97 536.871,1657.02 537.196,1657.32C537.519,1657.61 537.624,1658.07 537.456,1658.48L532.575,1670.33L545.458,1667.75C545.927,1667.66 546.402,1667.9 546.601,1668.34C546.8,1668.78 546.671,1669.29 546.29,1669.59L526.446,1684.85C526.26,1684.99 526.038,1685.06 525.816,1685.06Z" style="fill:rgb(246,235,227);fill-rule:nonzero;"/>
        </g>
        <g transform="matrix(1.76687,0,0,1.76687,441.404,-712.946)">
            <path d="M483.079,1694.22C482.631,1694.22 482.22,1693.93 482.089,1693.48C474.68,1668.3 449.313,1656.08 449.059,1655.96C448.542,1655.72 448.321,1655.11 448.565,1654.59C448.807,1654.07 449.424,1653.85 449.939,1654.1C450.203,1654.22 476.395,1666.8 484.07,1692.9C484.231,1693.45 483.919,1694.02 483.37,1694.18C483.273,1694.21 483.176,1694.22 483.079,1694.22Z" style="fill:rgb(114,53,53);fill-rule:nonzero;"/>
        </g>
        <g transform="matrix(1.76687,0,0,1.76687,441.404,-712.946)">
            <path d="M577.564,1703.58C566.537,1703.58 549.794,1701.06 537.093,1699.14C530.166,1698.1 524.694,1697.28 522.763,1697.28C517.209,1697.28 514.36,1700 514.331,1700.03C513.924,1700.43 513.271,1700.42 512.873,1700.02C512.473,1699.62 512.473,1698.97 512.875,1698.57C513.012,1698.43 516.305,1695.21 522.763,1695.21C524.85,1695.21 530.114,1696 537.4,1697.1C551.211,1699.18 572.08,1702.32 582.19,1701.32C596.641,1699.88 601.169,1691.28 601.213,1691.2C601.47,1690.69 602.091,1690.48 602.6,1690.74C603.108,1691 603.313,1691.62 603.06,1692.13C602.862,1692.52 598.047,1701.81 582.396,1703.38C580.959,1703.52 579.335,1703.58 577.564,1703.58Z" style="fill:rgb(114,53,53);fill-rule:nonzero;"/>
        </g>
    </g>
    <g id="camisa">
        <g transform="matrix(1.76687,0,0,1.76687,441.404,-712.946)">
            <path d="M447.715,727.261C447.715,727.261 439.829,693.744 437.857,691.772C435.885,689.801 383.638,661.212 383.638,661.212C383.638,661.212 380.68,660.227 380.68,664.17C380.68,668.113 370.822,681.914 370.822,681.914C370.822,681.914 299.844,721.347 291.958,733.176C284.071,745.006 270.27,808.097 266.327,819.927C262.384,831.757 260.411,849.501 256.469,857.388C252.526,865.274 234.781,908.649 236.753,912.593C238.725,916.536 230.838,940.195 250.554,952.024C270.27,963.854 295.901,955.968 295.901,955.968L319.561,936.252C319.561,936.252 323.504,963.854 321.532,973.712C319.561,983.57 319.561,995.4 319.561,995.4L315.617,1030.89C315.617,1030.89 390.539,1056.52 424.056,1054.55C457.573,1052.58 510.807,1032.86 510.807,1032.86C510.807,1032.86 518.693,1015.12 520.664,1011.17C522.636,1007.23 524.608,977.656 524.608,977.656C524.608,977.656 569.955,991.457 581.784,991.457C593.614,991.457 617.273,993.429 617.273,993.429C617.273,993.429 619.245,953.996 627.131,950.053L591.643,942.167C591.643,942.167 587.699,934.28 581.784,934.28C575.87,934.28 564.04,930.337 564.04,930.337C564.04,930.337 536.438,916.536 538.409,912.593C540.381,908.649 548.267,906.678 544.324,892.876C540.381,879.075 538.409,833.728 538.409,825.842C538.409,817.955 544.324,768.665 526.579,748.949C508.835,729.233 469.403,705.574 469.403,705.574C469.403,705.574 471.374,685.857 467.431,683.886C463.488,681.914 459.545,677.971 459.545,677.971L447.715,727.261Z" style="fill:rgb(98,117,149);fill-rule:nonzero;"/>
        </g>
        <g transform="matrix(1.76687,0,0,1.76687,441.404,-712.946)">
            <path d="M418.14,718.436C417.906,718.436 417.674,718.356 417.486,718.203L374.112,682.714C373.67,682.352 373.605,681.701 373.967,681.26C374.326,680.817 374.978,680.755 375.419,681.114L417.139,715.25C417.323,708.65 418.491,690.619 425.777,688.799C428.1,688.218 430.202,688.504 432.016,689.649C435.769,692.024 436.854,697.263 436.898,697.484C437.01,698.043 436.648,698.587 436.089,698.699C435.522,698.818 434.986,698.45 434.873,697.891C434.863,697.846 433.908,693.286 430.904,691.391C429.568,690.55 428.055,690.361 426.277,690.803C420.45,692.26 419.173,710.499 419.173,717.403C419.173,717.803 418.943,718.166 418.582,718.336C418.441,718.404 418.292,718.436 418.14,718.436Z" style="fill:rgb(59,51,72);fill-rule:nonzero;"/>
        </g>
        <g transform="matrix(1.76687,0,0,1.76687,441.404,-712.946)">
            <path d="M467.432,704.635C467.384,704.635 467.333,704.632 467.285,704.625C466.72,704.544 466.327,704.021 466.407,703.456C466.966,699.541 467.319,692.713 465.887,691.061C465.715,690.861 465.58,690.834 465.459,690.834C463.179,690.834 458.863,697.418 456.524,702.093C456.271,702.604 455.651,702.811 455.139,702.555C454.628,702.3 454.422,701.679 454.676,701.169C455.711,699.098 461.099,688.768 465.459,688.768C466.228,688.768 466.916,689.093 467.448,689.708C469.91,692.546 468.718,701.901 468.453,703.749C468.378,704.264 467.937,704.635 467.432,704.635Z" style="fill:rgb(59,51,72);fill-rule:nonzero;"/>
        </g>
        <g transform="matrix(1.76687,0,0,1.76687,441.404,-712.946)">
            <path d="M463.49,1035.86C463.433,1035.86 463.375,1035.86 463.318,1035.85C462.755,1035.76 462.374,1035.22 462.469,1034.66C462.527,1034.31 468.371,999.169 468.371,991.457C468.371,989.988 468.439,985.1 468.538,978.052C468.968,947.324 469.973,875.364 468.391,867.449C467.59,863.45 464.799,850.812 461.843,837.433C456.089,811.392 452.596,795.493 452.596,794.296C452.594,792.692 448.329,745.43 446.687,727.355C446.634,726.787 447.054,726.284 447.623,726.232C448.153,726.172 448.692,726.599 448.744,727.168C448.986,729.826 454.662,792.3 454.662,794.296C454.749,795.745 459.801,818.612 463.861,836.987C466.819,850.377 469.611,863.024 470.417,867.043C472.042,875.173 471.034,947.288 470.604,978.082C470.505,985.113 470.437,989.99 470.437,991.457C470.437,999.338 464.749,1033.55 464.507,1035C464.422,1035.51 463.984,1035.86 463.49,1035.86Z" style="fill:rgb(59,51,72);fill-rule:nonzero;"/>
        </g>
        <g transform="matrix(1.76687,0,0,1.76687,441.404,-712.946)">
            <path d="M305.759,937.284C303.854,937.284 301.316,935.551 298.517,932.841C295.541,931.596 292.083,930.216 288.958,928.969C277.234,924.288 269.412,921.082 267.568,919.238C267.164,918.834 267.164,918.181 267.568,917.777C267.972,917.374 268.625,917.374 269.029,917.777C270.709,919.458 281.254,923.667 289.724,927.05C291.718,927.845 293.495,928.56 295.079,929.201C286.459,919.377 276.827,903.794 275.304,901.303C275.007,900.816 275.16,900.181 275.646,899.882C276.129,899.583 276.767,899.737 277.067,900.225C283.09,910.08 292.738,924.143 299.591,931.058C307.294,934.288 307.988,935.032 307.766,936.183C307.554,937.284 306.203,937.284 305.759,937.284Z" style="fill:rgb(59,51,72);fill-rule:nonzero;"/>
        </g>
        <g transform="matrix(1.76687,0,0,1.76687,441.404,-712.946)">
            <path d="M343.219,858.421C342.681,858.421 342.23,858.007 342.19,857.467C342.15,856.958 338.183,806.412 330.583,796.913C330.227,796.467 330.298,795.818 330.744,795.46C331.194,795.105 331.841,795.177 332.196,795.622C337.335,802.045 340.78,824.83 342.63,840.847C342.917,834.34 343.387,826.387 344.162,817.861C346.092,796.637 340.318,777.044 340.259,776.849C340.094,776.302 340.404,775.727 340.951,775.562C341.508,775.402 342.075,775.71 342.236,776.255C342.297,776.454 348.189,796.413 346.219,818.049C344.274,839.436 344.252,857.211 344.252,857.388C344.252,857.942 343.814,858.398 343.26,858.419C343.246,858.421 343.231,858.421 343.219,858.421Z" style="fill:rgb(59,51,72);fill-rule:nonzero;"/>
        </g>
        <g transform="matrix(1.76687,0,0,1.76687,441.404,-712.946)">
            <path d="M319.293,911.972C318.682,911.972 318.004,911.847 317.262,911.601C311.15,909.563 295.505,892.058 293.027,874.274C288.425,874.672 268.896,876.408 258.609,878.123C258.058,878.217 257.515,877.836 257.42,877.273C257.325,876.71 257.708,876.178 258.271,876.084C270.005,874.128 293.606,872.151 293.842,872.132C294.395,872.071 294.896,872.49 294.956,873.047C296.849,890.092 312.226,907.743 317.915,909.64C318.668,909.89 319.677,910.09 320.197,909.607C321.111,908.764 320.817,906.109 320.53,904.957C320.393,904.402 320.73,903.843 321.283,903.704C321.838,903.572 322.398,903.901 322.536,904.456C322.655,904.938 323.654,909.222 321.602,911.123C320.992,911.688 320.22,911.972 319.293,911.972Z" style="fill:rgb(59,51,72);fill-rule:nonzero;"/>
        </g>
        <g transform="matrix(1.76687,0,0,1.76687,441.404,-712.946)">
            <path d="M287.527,874.762C287.418,874.762 287.307,874.745 287.198,874.708L262.056,866.253C261.515,866.071 261.224,865.485 261.406,864.945C261.588,864.405 262.177,864.118 262.713,864.294L287.856,872.749C288.396,872.932 288.687,873.517 288.505,874.058C288.36,874.489 287.958,874.762 287.527,874.762Z" style="fill:rgb(59,51,72);fill-rule:nonzero;"/>
        </g>
        <g transform="matrix(1.76687,0,0,1.76687,441.404,-712.946)">
            <path d="M335.334,757.869C335.001,757.869 334.674,757.708 334.475,757.409C326.884,746.023 301.766,738.185 301.511,738.106C300.967,737.938 300.662,737.36 300.83,736.815C300.995,736.27 301.566,735.959 302.121,736.131C303.18,736.458 328.193,744.265 336.193,756.263C336.51,756.738 336.381,757.379 335.907,757.695C335.731,757.813 335.532,757.869 335.334,757.869Z" style="fill:rgb(59,51,72);fill-rule:nonzero;"/>
        </g>
        <g transform="matrix(1.76687,0,0,1.76687,441.404,-712.946)">
            <path d="M422.083,1027.98C421.578,1027.98 421.136,1027.61 421.062,1027.09C420.981,1026.53 421.375,1026 421.939,1025.92C438.87,1023.5 462.711,1019.89 474.218,1017.7C469.984,1017.91 463.907,1018.12 455.601,1018.12C429.994,1018.12 351.939,974.499 348.628,972.642C348.132,972.362 347.955,971.732 348.233,971.236C348.512,970.735 349.141,970.56 349.64,970.838C350.446,971.292 430.531,1016.05 455.601,1016.05C468.383,1016.05 475.85,1015.56 479.439,1015.32C482.761,1015.09 483.277,1015.06 483.542,1016.03C483.796,1016.96 483.094,1017.31 481.695,1018.01C477.716,1020 427.897,1027.16 422.23,1027.97C422.182,1027.98 422.131,1027.98 422.083,1027.98Z" style="fill:rgb(59,51,72);fill-rule:nonzero;"/>
        </g>
        <g transform="matrix(1.76687,0,0,1.76687,441.404,-712.946)">
            <path d="M392.509,862.364C392.12,862.364 391.747,862.143 391.571,861.764C391.333,861.247 391.559,860.632 392.076,860.393C417.248,848.775 475.967,790.213 476.558,789.623C476.962,789.219 477.615,789.219 478.019,789.623C478.423,790.026 478.423,790.68 478.019,791.083C475.598,793.503 418.447,850.497 392.943,862.27C392.802,862.334 392.655,862.364 392.509,862.364Z" style="fill:rgb(59,51,72);fill-rule:nonzero;"/>
        </g>
        <g transform="matrix(1.76687,0,0,1.76687,441.404,-712.946)">
            <path d="M524.607,976.718C524.037,976.718 523.573,976.256 523.573,975.685L523.573,837.672C523.573,831.74 529.263,797.55 529.504,796.098C529.6,795.535 530.14,795.15 530.693,795.249C531.256,795.343 531.637,795.875 531.542,796.438C531.484,796.791 525.641,831.909 525.641,837.672L525.641,975.685C525.641,976.256 525.179,976.718 524.607,976.718Z" style="fill:rgb(59,51,72);fill-rule:nonzero;"/>
        </g>
        <g transform="matrix(1.76687,0,0,1.76687,441.404,-712.946)">
            <path d="M554.183,931.37C554.056,931.37 553.925,931.346 553.8,931.296C552.992,930.973 533.998,923.37 530.062,921.403C529.44,921.092 529.024,920.547 528.861,919.825C527.868,915.453 537.604,902.65 539.565,900.13C539.916,899.678 540.565,899.596 541.014,899.949C541.465,900.298 541.546,900.947 541.195,901.397C536.568,907.35 530.306,916.859 530.876,919.369C530.911,919.517 530.951,919.539 530.985,919.555C534.845,921.483 554.371,929.3 554.566,929.379C555.097,929.591 555.353,930.192 555.142,930.721C554.98,931.124 554.592,931.37 554.183,931.37Z" style="fill:rgb(59,51,72);fill-rule:nonzero;"/>
        </g>
        <g transform="matrix(1.76687,0,0,1.76687,441.404,-712.946)">
            <path d="M560.095,978.687C559.717,978.687 559.354,978.479 559.173,978.118C559.084,977.94 557.034,973.72 559.116,967.471C561.122,961.454 584.386,941.646 587.031,939.407C587.465,939.042 588.118,939.094 588.487,939.528C588.857,939.964 588.802,940.615 588.367,940.984C581.299,946.965 562.619,963.498 561.077,968.125C559.279,973.516 561.005,977.162 561.023,977.198C561.273,977.71 561.063,978.328 560.553,978.58C560.405,978.653 560.248,978.687 560.095,978.687Z" style="fill:rgb(59,51,72);fill-rule:nonzero;"/>
        </g>
    </g>
    <g id="pantalon">
        <g transform="matrix(1.76687,0,0,1.76687,441.404,-712.946)">
            <path d="M510.807,1026.95L518.693,1058.49C518.693,1058.49 526.579,1082.15 524.608,1084.12C522.636,1086.09 524.608,1259.6 518.693,1299.03C512.778,1338.46 510.807,1403.52 510.807,1421.27C510.807,1439.01 508.835,1569.14 510.807,1573.08C512.778,1577.02 524.608,1608.57 524.608,1612.51C524.608,1616.46 516.721,1632.23 516.721,1632.23L524.608,1644.06C524.608,1644.06 477.289,1677.58 435.885,1675.61C435.885,1675.61 431.942,1655.89 435.885,1649.97C439.829,1644.06 441.8,1638.14 441.8,1632.23C441.8,1626.31 429.971,1606.6 429.971,1598.71C429.971,1590.83 426.027,1553.37 429.971,1496.19C433.914,1439.01 420.112,1346.35 420.112,1346.35C420.112,1346.35 418.141,1342.4 412.226,1366.06C406.311,1389.72 384.624,1496.19 384.624,1529.71C384.624,1563.22 382.652,1632.23 380.68,1644.06C378.709,1655.89 366.879,1667.72 366.879,1667.72L366.879,1693.35C366.879,1693.35 345.191,1691.38 331.39,1693.35C317.589,1695.32 276.185,1709.12 276.185,1709.12L276.185,1691.38C276.185,1689.41 270.27,1675.61 272.242,1669.69C274.213,1663.78 270.27,1636.17 272.242,1630.26C274.213,1624.34 276.185,1460.7 286.043,1417.32C295.901,1373.95 313.646,1314.8 311.674,1267.48C309.702,1220.16 319.561,1026.95 319.561,1026.95L510.807,1026.95Z" style="fill:rgb(59,51,72);fill-rule:nonzero;"/>
        </g>
        <g transform="matrix(1.76687,0,0,1.76687,441.404,-712.946)">
            <path d="M420.115,1341.46C420.043,1341.46 419.97,1341.46 419.896,1341.44C419.338,1341.32 418.983,1340.77 419.103,1340.21C420.229,1334.99 446.694,1212.49 458.52,1190.31C458.708,1183.91 462.328,1058.11 458.542,1042.97C458.405,1042.42 458.742,1041.86 459.295,1041.72C459.848,1041.58 460.409,1041.91 460.548,1042.47C464.479,1058.2 460.739,1185.22 460.578,1190.62C460.572,1190.78 460.53,1190.94 460.451,1191.08C448.829,1212.39 421.398,1339.37 421.124,1340.65C421.02,1341.13 420.592,1341.46 420.115,1341.46Z" style="fill:rgb(117,105,140);fill-rule:nonzero;"/>
        </g>
        <g transform="matrix(1.76687,0,0,1.76687,441.404,-712.946)">
            <path d="M461.296,1175.5C461.115,1175.5 460.931,1175.45 460.764,1175.35C460.275,1175.05 460.118,1174.42 460.411,1173.93L474.284,1150.87L474.284,1038.78C474.284,1038.21 474.747,1037.74 475.317,1037.74C475.889,1037.74 476.351,1038.21 476.351,1038.78L476.351,1151.16C476.351,1151.34 476.3,1151.53 476.203,1151.69L462.182,1174.99C461.988,1175.32 461.646,1175.5 461.296,1175.5Z" style="fill:rgb(117,105,140);fill-rule:nonzero;"/>
        </g>
        <g transform="matrix(1.76687,0,0,1.76687,441.404,-712.946)">
            <path d="M355.051,1613.55C355.013,1613.55 354.974,1613.55 354.938,1613.54C354.369,1613.48 353.959,1612.97 354.022,1612.4C354.24,1610.41 375.785,1412.93 381.65,1389.47C387.481,1366.14 412.916,1162.94 413.172,1160.89C413.243,1160.32 413.766,1159.91 414.327,1159.99C414.892,1160.06 415.293,1160.58 415.223,1161.14C414.966,1163.2 389.517,1366.52 383.656,1389.97C377.825,1413.29 356.292,1610.64 356.076,1612.63C356.018,1613.16 355.571,1613.55 355.051,1613.55Z" style="fill:rgb(117,105,140);fill-rule:nonzero;"/>
        </g>
        <g transform="matrix(1.76687,0,0,1.76687,441.404,-712.946)">
            <path d="M298.907,1513.93L298.927,1513.93L298.907,1513.93ZM288.015,1682.55C287.712,1682.55 287.412,1682.42 287.208,1682.17C286.853,1681.72 286.923,1681.07 287.369,1680.71C287.567,1680.55 307.252,1664.83 317.058,1658.95C325.181,1654.07 335.645,1654.38 346.734,1654.7C349.484,1654.78 352.267,1654.86 355.049,1654.86C361.677,1654.86 367.869,1650.48 369.772,1644.44C371.852,1637.84 368.426,1630.83 360.372,1625.19C349.849,1617.82 333.211,1588.49 321.109,1565.18C308.323,1540.55 296.84,1515.38 296.84,1513.93C296.84,1513.36 297.303,1512.9 297.874,1512.9C298.406,1512.9 298.844,1513.3 298.9,1513.82C300.037,1518.5 342.975,1610.49 361.558,1623.5C370.399,1629.69 374.112,1637.55 371.743,1645.06C369.576,1651.93 362.557,1656.92 355.049,1656.92C352.246,1656.92 349.444,1656.84 346.673,1656.76C335.901,1656.45 325.724,1656.16 318.119,1660.72C308.434,1666.53 288.856,1682.17 288.661,1682.33C288.469,1682.48 288.241,1682.55 288.015,1682.55Z" style="fill:rgb(117,105,140);fill-rule:nonzero;"/>
        </g>
        <g transform="matrix(1.76687,0,0,1.76687,441.404,-712.946)">
            <path d="M288.015,1662.84C287.638,1662.84 287.272,1662.63 287.091,1662.27C286.837,1661.76 287.042,1661.14 287.553,1660.88C289.331,1659.99 331.323,1639.09 351.003,1637.12C351.885,1637.03 352.529,1636.93 352.999,1636.85C347.908,1634.94 328.048,1631.7 309.883,1629.35L286.506,1641.04C285.993,1641.3 285.376,1641.09 285.12,1640.58C284.866,1640.07 285.071,1639.45 285.582,1639.19L309.241,1627.36C309.425,1627.27 309.633,1627.23 309.836,1627.26C356.112,1633.23 356.072,1636 356.058,1637.04C356.038,1638.43 354.339,1638.86 351.209,1639.17C331.908,1641.1 288.909,1662.51 288.477,1662.73C288.328,1662.8 288.17,1662.84 288.015,1662.84Z" style="fill:rgb(117,105,140);fill-rule:nonzero;"/>
        </g>
        <g transform="matrix(1.76687,0,0,1.76687,441.404,-712.946)">
            <path d="M461.514,1617.49C460.974,1617.49 460.52,1617.07 460.485,1616.52C460.449,1615.95 460.883,1615.46 461.452,1615.43C473.358,1614.68 492.73,1611.56 494.031,1606.35C495.777,1599.37 444.437,1423.39 439.098,1418.06C438.694,1417.65 438.694,1417 439.098,1416.59C439.501,1416.19 440.155,1416.19 440.559,1416.59C446.723,1422.75 498.053,1598.79 496.037,1606.85C493.943,1615.23 464.888,1617.28 461.581,1617.49L461.514,1617.49Z" style="fill:rgb(117,105,140);fill-rule:nonzero;"/>
        </g>
        <g transform="matrix(1.76687,0,0,1.76687,441.404,-712.946)">
            <path d="M453.611,1649.13C453.04,1649.13 452.596,1648.57 452.596,1648C452.596,1643.96 490.061,1628.37 512.395,1619.44C512.922,1619.23 513.524,1619.49 513.736,1620.02C513.948,1620.54 513.692,1621.15 513.161,1621.36C485.866,1632.28 456.075,1645.39 454.626,1648.2C454.626,1648.77 454.182,1649.13 453.611,1649.13Z" style="fill:rgb(117,105,140);fill-rule:nonzero;"/>
        </g>
        <g transform="matrix(1.76687,0,0,1.76687,441.404,-712.946)">
            <path d="M431.945,1365.12C431.889,1365.12 431.83,1365.12 431.773,1365.11C431.21,1365.02 430.829,1364.48 430.924,1363.92L438.81,1316.6C438.904,1316.04 439.449,1315.65 439.998,1315.75C440.561,1315.85 440.942,1316.38 440.847,1316.94L432.962,1364.26C432.877,1364.77 432.439,1365.12 431.945,1365.12Z" style="fill:rgb(117,105,140);fill-rule:nonzero;"/>
        </g>
        <g transform="matrix(1.76687,0,0,1.76687,441.404,-712.946)">
            <path d="M435.886,1392.73C435.777,1392.73 435.668,1392.71 435.559,1392.67C435.018,1392.49 434.726,1391.91 434.905,1391.37L448.706,1349.96C448.888,1349.42 449.477,1349.13 450.014,1349.31C450.554,1349.49 450.847,1350.08 450.667,1350.62L436.866,1392.02C436.721,1392.45 436.317,1392.73 435.886,1392.73Z" style="fill:rgb(117,105,140);fill-rule:nonzero;"/>
        </g>
        <g transform="matrix(1.76687,0,0,1.76687,441.404,-712.946)">
            <path d="M495.034,1534.68C494.473,1534.68 494.013,1534.23 494.001,1533.67C493.981,1532.74 492.052,1440.72 494.007,1421.17C495.95,1401.73 494.021,1177.09 494.001,1174.83C493.997,1174.26 494.455,1173.79 495.026,1173.78C495.622,1173.75 496.063,1174.24 496.067,1174.81C496.148,1184.07 498.017,1401.82 496.061,1421.37C494.12,1440.8 496.047,1532.7 496.067,1533.63C496.079,1534.2 495.627,1534.67 495.057,1534.68L495.034,1534.68Z" style="fill:rgb(117,105,140);fill-rule:nonzero;"/>
        </g>
        <g transform="matrix(1.76687,0,0,1.76687,441.404,-712.946)">
            <path d="M349.135,1219.22C349.063,1219.22 348.986,1219.22 348.911,1219.2C348.175,1219.04 330.824,1215.14 326.716,1211.04C322.737,1207.06 331.803,1112.27 334.678,1083.32C334.735,1082.75 335.227,1082.32 335.808,1082.39C336.375,1082.45 336.789,1082.95 336.732,1083.52C331.932,1131.9 325.706,1205.41 328.23,1209.64C331.238,1212.63 344.504,1216.1 349.359,1217.18C349.916,1217.31 350.267,1217.86 350.144,1218.42C350.037,1218.9 349.609,1219.22 349.135,1219.22Z" style="fill:rgb(117,105,140);fill-rule:nonzero;"/>
        </g>
        <g transform="matrix(1.76687,0,0,1.76687,441.404,-712.946)">
            <path d="M349.135,1203.45C349.032,1203.45 348.927,1203.44 348.824,1203.4C348.279,1203.23 347.979,1202.65 348.15,1202.11C359.807,1165.2 367.74,1039.97 367.819,1038.71C367.855,1038.14 368.265,1037.69 368.915,1037.75C369.483,1037.78 369.917,1038.27 369.881,1038.84C369.802,1040.1 361.853,1165.58 350.12,1202.73C349.98,1203.17 349.575,1203.45 349.135,1203.45Z" style="fill:rgb(117,105,140);fill-rule:nonzero;"/>
        </g>
    </g>
    <g id="mano-izq" serif:id="mano izq">
        <g transform="matrix(1.76687,0,0,1.76687,441.404,-712.946)">
            <path d="M293.93,873.16C293.93,873.16 307.731,853.444 311.674,849.501C315.617,845.558 323.504,845.558 325.475,843.586C327.447,841.615 349.135,843.586 349.135,843.586L349.135,861.331L339.276,888.933C339.276,888.933 319.022,903.389 308.447,903.062C308.447,903.062 295.901,888.933 293.93,873.16Z" style="fill:rgb(255,160,139);fill-rule:nonzero;"/>
        </g>
        <g transform="matrix(1.76687,0,0,1.76687,441.404,-712.946)">
            <path d="M349.135,843.586C349.135,843.586 333.362,841.615 337.305,847.529C341.248,853.444 351.106,861.331 352.959,859.359C354.813,857.388 350.121,844.572 350.121,844.572L349.135,843.586Z" style="fill:rgb(255,160,139);fill-rule:nonzero;"/>
        </g>
    </g>
    <g>
        <g transform="matrix(1.76687,0,0,1.76687,441.404,-712.946)">
            <path d="M299.844,853.444L398.425,857.388L427.999,916.536L331.39,912.593L299.844,853.444Z" style="fill:rgb(254,209,144);fill-rule:nonzero;"/>
        </g>
        <g transform="matrix(1.76687,0,0,1.76687,441.404,-712.946)">
            <path d="M386.595,864.335L331.39,864.335C331.305,864.335 331.22,864.325 331.139,864.304L307.48,858.39C306.925,858.251 306.59,857.69 306.727,857.138C306.864,856.583 307.421,856.245 307.98,856.386L331.517,862.27L386.283,862.27L391.937,858.499C392.406,858.184 393.048,858.31 393.369,858.786C393.686,859.26 393.557,859.901 393.083,860.218L387.168,864.162C386.999,864.275 386.799,864.335 386.595,864.335Z" style="fill:rgb(244,169,71);fill-rule:nonzero;"/>
        </g>
    </g>
    <g>
        <g transform="matrix(1.76687,0,0,1.76687,441.404,-712.946)">
            <path d="M617.273,975.684L577.841,1042.72L806.548,1038.78L844.008,969.769L617.273,975.684Z" style="fill:rgb(254,209,144);fill-rule:nonzero;"/>
        </g>
        <g transform="matrix(1.76687,0,0,1.76687,441.404,-712.946)">
            <path d="M623.188,991.457L609.387,1015.12L759.229,1013.14L773.03,987.514L623.188,991.457Z" style="fill:rgb(244,169,71);fill-rule:nonzero;"/>
        </g>
        <g transform="matrix(1.76687,0,0,1.76687,441.404,-712.946)">
            <path d="M790.775,967.798L773.03,1007.23L607.415,1007.23L629.103,971.741L790.775,967.798Z" style="fill:rgb(247,228,203);fill-rule:nonzero;"/>
        </g>
    </g>
</svg>
